<?xml version="1.0" encoding="UTF-8" standalone="no"?>
<!DOCTYPE svg PUBLIC "-//W3C//DTD SVG 1.1//EN" "http://www.w3.org/Graphics/SVG/1.1/DTD/svg11.dtd">

<!-- Created with Vectornator (http://vectornator.io/) -->
<svg height="100%" stroke-miterlimit="10" style="fill-rule:nonzero;clip-rule:evenodd;stroke-linecap:round;stroke-linejoin:round;" version="1.1" viewBox="0 0 841.995 595.35" width="100%" xml:space="preserve" xmlns="http://www.w3.org/2000/svg" xmlns:vectornator="http://vectornator.io" xmlns:xlink="http://www.w3.org/1999/xlink">
<metadata>
<vectornator:setting key="IsTimeLapseWatermarkDisabled" value="false"/>
<vectornator:setting key="UndoHistoryDisabled" value="true"/>
<vectornator:setting key="VNDimensionsVisible" value="true"/>
<vectornator:setting key="VNSnapToGuides" value="true"/>
<vectornator:setting key="WDCMYKEnabledKey" value="false"/>
<vectornator:setting key="WDDisplayWhiteBackground" value="false"/>
<vectornator:setting key="WDDynamicGuides" value="false"/>
<vectornator:setting key="WDGuidesVisible" value="true"/>
<vectornator:setting key="WDIsolateActiveLayer" value="false"/>
<vectornator:setting key="WDOutlineMode" value="false"/>
<vectornator:setting key="WDRulersVisible" value="true"/>
<vectornator:setting key="WDSnapToEdges" value="false"/>
<vectornator:setting key="WDSnapToGrid" value="false"/>
<vectornator:setting key="WDSnapToPoints" value="false"/>
<vectornator:setting key="WDUnits" value="Millimeters"/>
</metadata>
<defs/>
<g id="Layer-1" vectornator:layerName="Layer 1">
<path d="M222.973 260.773C223.39 261.607 223.107 263.145 224.012 263.372C225.392 263.716 229.813 254.369 230.249 253.496C236.187 241.621 241.431 229.44 246.362 217.114C248.159 212.619 249.917 208.444 252.079 204.12C252.637 203.003 254.802 200.856 255.197 202.041C257.655 209.415 255.487 223.317 255.717 231.147C256.461 256.449 257.051 281.736 258.316 307.03C258.855 317.822 258.268 329.139 260.395 339.775C260.688 341.24 262.784 341.954 263.513 343.413" fill="none" fill-rule="evenodd" opacity="1" stroke="#000000" stroke-linecap="round" stroke-linejoin="round" stroke-width="10"/>
<path d="M313.929 344.972C309.011 347.431 302.216 343.413 296.777 343.413C281.817 343.413 266.214 344.885 251.559 348.091C242.22 350.134 232.933 352.235 223.493 353.808C221.525 354.136 213.207 356.297 216.736 352.768" fill="none" fill-rule="evenodd" opacity="1" stroke="#000000" stroke-linecap="round" stroke-linejoin="round" stroke-width="10"/>
<path d="M354.47 241.542C347.968 238.291 357.161 229.238 360.187 227.509C376.664 218.093 409.21 207.716 419.958 230.108C426.073 242.846 420.258 259.032 415.8 271.168C409.689 287.803 403.131 304.299 396.05 320.544C392.216 329.339 388.684 337.847 386.174 347.051C386.075 347.414 384.551 352.184 385.135 352.768C386.297 353.931 388.263 351.756 389.813 351.209C394.054 349.712 398.443 348.662 402.806 347.571C419.966 343.281 437.696 336.723 451.663 350.689" fill="none" fill-rule="evenodd" opacity="1" stroke="#000000" stroke-linecap="round" stroke-linejoin="round" stroke-width="10"/>
<path d="M490.644 225.43C490.644 212.048 499.312 213.995 509.875 213.995C524.075 213.995 539.852 215.589 547.816 229.068C558.94 247.893 543.992 267.291 529.105 277.925C524.819 280.986 520.024 283.239 516.112 286.76C515.106 287.665 512.762 288.753 513.513 289.879C514.365 291.157 523.341 290.776 524.428 290.918C526.687 291.213 528.964 291.445 531.184 291.958C547.644 295.756 564.547 306.482 568.087 324.182C572.004 343.766 553.75 359.824 536.382 363.683C534.325 364.14 532.222 364.362 530.145 364.723C528.237 365.055 526.353 365.548 524.428 365.762C523.791 365.833 517.403 366.796 516.631 366.282C515.911 365.801 516.631 364.549 516.631 363.683" fill="none" fill-rule="evenodd" opacity="1" stroke="#000000" stroke-linecap="round" stroke-linejoin="round" stroke-width="10"/>
<path d="M610.186 209.837C608.694 214.315 606.388 218.284 604.989 222.831C600.765 236.559 598.752 251.679 598.752 265.97C598.752 272.08 597.378 285.294 604.469 288.839C608.138 290.674 615.221 287.993 619.022 287.28C629.857 285.249 641.314 282.083 652.286 282.083" fill="none" fill-rule="evenodd" opacity="1" stroke="#000000" stroke-linecap="round" stroke-linejoin="round" stroke-width="10"/>
<path d="M648.128 194.245C649.869 206.431 646.569 219.34 646.569 231.667C646.569 262.679 646.781 293.711 648.128 324.702C648.75 338.998 649.686 353.173 651.766 367.321C652.384 371.524 653.098 375.742 654.365 379.795C654.905 381.522 655.353 383.277 655.924 384.993C656.047 385.361 656.444 386.42 656.444 386.032C656.444 385.38 655.65 383.13 655.405 382.394" fill="none" fill-rule="evenodd" opacity="1" stroke="#000000" stroke-linecap="round" stroke-linejoin="round" stroke-width="10"/>
</g>
</svg>
